<svg xmlns="http://www.w3.org/2000/svg" width="32" height="32" viewBox="0 0 200 180" fill="none">
  <path d="M52 8 C46 12,38 22,34 32 C28 48,36 52,42 44 C48 36,40 28,34 36 C26 48,38 64,48 56 C56 50,44 40,40 50 C34 64,54 78,62 70 C68 64,56 54,52 62 C46 76,66 90,76 82 C84 76,70 64,66 74 C60 90,80 108,90 100 C96 94,92 86,96 118 L100 140" stroke="#0b84e6" stroke-width="6" stroke-linecap="round" stroke-linejoin="round" fill="none"/>
  <path d="M148 8 C154 12,162 22,166 32 C172 48,164 52,158 44 C152 36,160 28,166 36 C174 48,162 64,152 56 C144 50,156 40,160 50 C166 64,146 78,138 70 C132 64,144 54,148 62 C154 76,134 90,124 82 C116 76,130 64,134 74 C140 90,120 108,110 100 C104 94,108 86,104 118 L100 140" stroke="#0b84e6" stroke-width="6" stroke-linecap="round" stroke-linejoin="round" fill="none"/>
  <path d="M52 8 C44 4,36 6,30 14 C26 20,30 22,34 18" stroke="#0b84e6" stroke-width="5" stroke-linecap="round" fill="none" opacity="0.7"/>
  <path d="M148 8 C156 4,164 6,170 14 C174 20,170 22,166 18" stroke="#0b84e6" stroke-width="5" stroke-linecap="round" fill="none" opacity="0.7"/>
  <path d="M100 140 C98 148,96 154,100 162 C104 154,102 148,100 140" stroke="#0b84e6" stroke-width="4" stroke-linecap="round" fill="#0b84e6" fill-opacity="0.15"/>
</svg>
